<?xml version="1.0" standalone="no"?>
<!DOCTYPE svg PUBLIC "-//W3C//DTD SVG 20010904//EN"
 "http://www.w3.org/TR/2001/REC-SVG-20010904/DTD/svg10.dtd">
<svg version="1.0" xmlns="http://www.w3.org/2000/svg"
 width="700.000000pt" height="700.000000pt" viewBox="0 0 700.000000 700.000000"
 preserveAspectRatio="xMidYMid meet">
<metadata>
Created by potrace 1.11, written by Peter Selinger 2001-2013
</metadata>
<g transform="translate(0.000000,700.000000) scale(0.100000,-0.100000)"
fill="#000000" stroke="none">
<path d="M2350 4732 c-6 -7 -10 -22 -7 -33 3 -12 1 -17 -6 -12 -6 4 -8 -1 -5
-13 3 -11 -1 -25 -9 -33 -12 -10 -12 -16 -1 -29 7 -9 8 -13 2 -9 -12 7 -23
-22 -31 -77 -2 -17 -7 -32 -11 -35 -4 -4 -9 -15 -9 -26 -1 -11 -7 -33 -14 -50
-6 -16 -13 -37 -14 -45 -1 -8 -5 -26 -9 -39 -6 -18 -5 -22 5 -15 20 12 38 14
44 4 3 -5 -3 -7 -12 -6 -10 2 -26 -2 -35 -8 -14 -8 -15 -13 -5 -25 8 -10 8
-13 1 -8 -7 4 -15 0 -18 -9 -3 -8 -2 -12 4 -9 5 3 3 -7 -5 -21 -8 -15 -12 -31
-9 -36 3 -4 0 -8 -7 -8 -8 0 -7 -5 2 -17 8 -9 9 -14 3 -10 -12 7 -29 -36 -25
-60 1 -7 -2 -13 -7 -13 -5 0 -8 -11 -7 -25 2 -14 -1 -25 -7 -25 -6 0 -4 -7 3
-17 8 -9 9 -14 3 -10 -7 4 -14 0 -18 -8 -6 -17 9 -29 26 -19 7 5 8 3 4 -5 -5
-7 -14 -10 -22 -7 -13 5 -18 -6 -15 -26 0 -5 -5 -8 -11 -8 -9 0 -8 -4 2 -10
12 -8 12 -10 1 -10 -11 0 -11 -3 -1 -16 8 -8 9 -14 4 -13 -21 4 -26 -2 -13
-18 8 -9 9 -14 2 -10 -10 7 -22 -14 -29 -49 -1 -6 -5 -22 -9 -34 -6 -17 -4
-21 6 -15 8 5 6 -1 -3 -12 -19 -21 -24 -38 -9 -28 5 3 13 1 16 -5 4 -6 3 -10
-2 -9 -23 4 -35 -2 -29 -16 3 -8 2 -15 -2 -15 -4 0 -9 -12 -10 -26 -1 -15 -8
-34 -15 -42 -10 -13 -9 -14 3 -7 12 7 13 6 4 -6 -18 -24 -25 -51 -11 -44 6 4
4 0 -5 -7 -15 -13 -15 -15 0 -26 14 -9 14 -11 1 -6 -12 4 -18 -8 -28 -53 -7
-32 -17 -67 -21 -78 -13 -30 -24 -68 -26 -87 -1 -10 -3 -20 -4 -23 -1 -3 -4
-9 -5 -15 -1 -5 -3 -11 -5 -12 -1 -2 -4 -16 -6 -33 -3 -16 -11 -36 -17 -44
-10 -12 -9 -13 3 -6 13 7 13 6 2 -7 -10 -13 -10 -17 0 -21 9 -4 8 -6 -3 -6
-16 -1 -19 -11 -21 -74 -1 -24 -4 -33 -10 -25 -4 7 -8 11 -9 8 0 -3 -3 -18 -5
-34 -3 -16 -9 -37 -14 -46 -6 -11 -5 -21 3 -29 9 -10 9 -12 -3 -9 -8 2 -15 -4
-15 -12 -3 -39 -19 -101 -26 -106 -5 -3 -7 -10 -3 -15 3 -6 12 -5 22 3 15 12
16 11 3 -4 -7 -10 -17 -16 -21 -13 -12 7 -23 -32 -14 -46 4 -7 3 -9 -4 -5 -6
4 -11 -1 -10 -11 0 -10 -5 -32 -10 -50 -6 -17 -8 -34 -4 -37 3 -3 1 -6 -5 -6
-5 0 -10 -6 -10 -12 -1 -7 -8 -36 -16 -65 -10 -38 -11 -55 -3 -63 8 -8 7 -11
-3 -8 -7 2 -16 -3 -19 -11 -3 -9 0 -12 10 -9 8 4 15 0 15 -8 0 -7 -4 -11 -9
-8 -16 10 -35 -16 -30 -41 3 -15 0 -25 -8 -25 -6 0 -10 -6 -7 -12 2 -7 1 -20
-4 -29 -4 -8 -3 -22 2 -30 6 -10 9 -11 9 -1 0 7 3 11 8 8 16 -10 107 -9 105 1
-2 7 9 5 27 -3 25 -13 28 -18 20 -40 l-10 -24 91 0 c71 0 91 -3 95 -15 4 -8 1
-21 -4 -28 -9 -10 29 -13 201 -11 117 0 215 2 218 3 3 0 6 7 7 14 1 6 4 26 8
42 3 17 6 42 7 57 0 15 4 25 8 22 5 -3 9 3 10 13 0 10 3 27 5 38 2 11 5 28 6
38 1 9 6 17 11 17 5 0 5 9 2 20 -3 11 -2 20 3 20 11 0 11 18 -1 37 -5 9 -3 11
6 7 7 -2 14 1 15 8 0 7 3 26 7 41 4 21 2 27 -7 22 -7 -4 -5 0 4 8 14 11 15 16
5 26 -7 7 -7 12 -2 11 22 -5 27 1 15 15 -10 12 -9 16 4 21 22 8 20 25 -1 18
-10 -3 -7 2 7 10 16 10 19 15 10 16 -11 0 -12 3 -3 8 6 4 13 19 15 32 2 14 6
30 9 35 4 6 5 18 4 28 -2 9 1 17 7 17 5 0 8 6 5 13 -2 6 0 20 5 30 5 11 5 17
-2 17 -5 0 -10 5 -10 10 0 6 3 9 8 9 19 -3 23 2 12 16 -11 13 -10 14 6 9 16
-6 15 -2 -6 22 -14 15 -18 23 -10 17 11 -8 18 -8 27 2 10 11 10 15 0 18 -9 4
-9 6 1 6 7 1 11 5 7 10 -3 5 -1 12 5 16 5 3 10 1 10 -5 0 -6 5 -8 12 -4 7 5 8
3 2 -7 -21 -34 -12 -84 14 -75 14 5 14 4 -1 -8 -12 -9 -15 -16 -7 -21 8 -5 8
-11 -1 -21 -9 -11 -8 -15 5 -20 11 -4 13 -11 7 -21 -11 -21 -2 -55 13 -46 6 4
5 -1 -3 -10 -12 -15 -11 -17 5 -18 18 0 18 -1 0 -8 -14 -5 -16 -10 -8 -15 7
-4 18 -4 25 -1 6 4 3 -1 -7 -9 -15 -12 -16 -16 -5 -16 8 0 10 -3 4 -8 -14 -10
-12 -36 3 -55 10 -12 10 -16 0 -20 -10 -4 -10 -6 1 -6 11 -1 11 -4 0 -18 -12
-14 -12 -16 0 -8 11 6 13 2 9 -19 -3 -14 -1 -29 4 -32 4 -3 6 -10 3 -15 -4 -5
2 -9 12 -9 13 0 14 -3 5 -8 -12 -8 -14 -62 -2 -62 3 0 6 -9 6 -20 0 -11 -4
-20 -9 -20 -5 0 -1 -7 8 -16 13 -14 14 -19 3 -25 -11 -7 -11 -9 1 -9 7 0 11
-6 7 -15 -3 -8 0 -15 6 -15 7 0 6 -5 -2 -15 -11 -14 -7 -19 13 -16 4 0 7 -2 7
-6 0 -5 23 -8 50 -8 53 0 57 3 38 25 -9 10 -6 9 7 -1 11 -9 28 -19 38 -22 10
-4 17 -17 17 -32 0 -17 6 -25 18 -26 9 0 49 0 89 0 40 -1 72 -4 72 -7 -6 -38
2 -52 29 -50 15 1 33 6 41 12 11 8 13 8 8 0 -4 -7 51 -10 186 -10 178 1 192 3
190 19 0 10 1 16 5 13 8 -8 31 26 32 47 0 9 4 17 10 17 5 0 7 7 4 15 -4 8 -1
15 5 15 14 0 14 32 1 48 -7 9 -7 9 2 2 18 -15 31 -12 24 5 -3 8 -1 15 5 15 6
0 8 4 5 9 -4 5 -3 11 2 13 4 1 20 32 36 68 15 36 37 82 47 103 11 21 17 42 14
47 -3 4 1 10 9 13 7 3 16 15 19 26 3 14 1 19 -6 15 -7 -3 -4 1 7 10 10 8 15
20 10 27 -4 8 -3 10 4 5 8 -5 12 0 12 13 0 11 5 23 10 26 6 4 8 11 5 16 -4 5
-1 9 6 9 7 0 10 3 7 6 -3 3 12 39 34 81 21 41 37 78 34 81 -4 3 -6 -1 -6 -8 0
-7 -3 -10 -7 -6 -4 4 3 16 17 28 14 11 18 16 10 12 -13 -7 -13 -5 -2 9 8 9 10
22 6 28 -4 7 -3 9 4 5 6 -3 13 -2 17 4 8 13 25 13 25 -1 0 -5 -4 -7 -10 -4
-14 9 -13 -8 2 -23 8 -8 8 -15 0 -24 -6 -8 -10 -35 -8 -61 1 -26 -1 -52 -5
-58 -10 -17 1 -40 15 -32 8 5 8 3 0 -8 -15 -20 -15 -60 -1 -78 9 -12 9 -13 0
-7 -9 5 -13 0 -13 -13 0 -12 5 -21 10 -21 6 0 10 -5 10 -11 0 -5 -5 -7 -10 -4
-16 10 -7 -17 10 -35 9 -8 10 -11 2 -6 -10 7 -12 4 -10 -15 2 -13 6 -28 9 -34
3 -5 4 -20 3 -32 0 -13 3 -23 7 -23 5 0 9 -9 9 -20 0 -11 6 -20 13 -20 8 0 7
-4 -3 -10 -10 -6 -11 -10 -2 -10 6 0 12 -7 12 -16 0 -8 7 -22 15 -31 8 -8 13
-19 10 -24 -6 -8 9 -13 28 -10 5 1 6 -3 3 -7 -7 -11 52 -82 68 -82 7 0 18 -6
25 -12 6 -7 15 -13 19 -14 4 0 18 -5 32 -12 14 -6 52 -20 85 -30 33 -11 80
-27 105 -35 25 -9 72 -24 105 -33 33 -10 62 -21 65 -25 3 -5 23 -9 44 -11 20
-1 40 -6 42 -10 10 -16 26 -8 20 10 -5 14 -3 13 9 -3 13 -17 18 -18 36 -7 13
8 18 9 14 2 -5 -7 14 -10 64 -9 64 2 70 3 59 18 -10 12 -8 12 8 -2 11 -9 24
-14 27 -10 6 5 17 8 60 12 5 1 6 4 4 9 -3 4 5 8 16 8 41 3 89 23 82 33 -2 4
11 14 30 21 19 8 35 17 35 22 0 4 7 8 16 8 10 0 14 6 10 15 -3 8 -2 14 2 14
22 -4 33 3 28 16 -3 9 0 15 9 15 8 0 19 9 25 20 9 16 8 20 -5 20 -8 0 -15 5
-15 11 0 6 -7 8 -16 5 -9 -3 -12 -2 -9 5 4 5 -3 18 -14 28 -12 10 -21 23 -21
30 0 6 -3 11 -7 11 -9 0 -33 48 -33 66 0 7 -5 16 -12 20 -7 5 -8 3 -3 -6 5 -8
4 -11 -2 -7 -6 4 -8 18 -5 32 2 14 0 25 -5 25 -5 0 -10 17 -11 37 -1 20 -7 40
-13 44 -8 5 -7 8 2 12 8 3 4 6 -8 6 -13 1 -23 5 -23 11 0 5 6 7 13 4 12 -4 13
4 8 60 -1 5 -11 1 -23 -10 l-23 -19 22 25 c23 26 29 90 9 90 -6 0 -4 5 4 10
13 9 13 10 0 10 -13 0 -13 1 0 10 10 6 11 10 3 10 -7 0 -13 5 -13 11 0 5 5 7
10 4 16 -10 7 18 -10 33 -8 8 -10 11 -3 8 6 -4 14 -2 18 4 3 5 1 10 -5 10 -7
0 -8 6 0 19 6 13 7 22 0 26 -5 3 -7 19 -3 36 5 25 3 29 -13 23 -11 -3 -9 1 6
10 14 8 19 15 11 16 -7 0 -11 6 -8 14 3 7 0 19 -6 26 -7 7 -7 10 -1 7 6 -4 10
3 10 16 -1 12 -8 25 -16 29 -13 6 -12 7 2 7 11 1 15 7 11 21 -3 11 -10 17 -17
13 -6 -4 -5 1 2 10 8 9 11 21 7 27 -3 5 -1 10 6 10 7 0 8 4 2 13 -5 6 -8 24
-7 40 2 17 -1 25 -8 21 -6 -4 -6 2 1 15 7 11 8 21 3 21 -5 0 -9 7 -9 15 0 8 4
12 9 8 16 -9 4 41 -12 57 -9 8 -10 11 -3 6 7 -5 13 -5 14 0 3 26 -1 96 -6 104
-3 6 0 10 7 10 10 0 9 3 -2 9 -8 6 -18 7 -22 5 -4 -3 -8 0 -8 6 0 7 7 9 16 6
8 -3 12 -2 9 3 -3 5 -1 13 5 16 8 5 7 11 -1 21 -6 7 -9 21 -5 29 3 8 0 15 -7
15 -7 0 -8 3 -2 8 14 10 17 32 4 32 -8 0 -8 4 -1 13 8 9 7 21 -3 40 -8 15 -10
25 -5 22 6 -4 10 9 10 29 0 19 -6 37 -12 39 -9 4 -9 6 1 6 11 1 10 5 -5 16
-15 12 -15 14 -2 9 14 -5 16 1 15 35 -1 23 -6 41 -12 41 -5 0 -3 5 5 10 12 8
13 11 1 19 -11 7 -11 9 0 14 12 5 12 6 0 6 -11 1 -11 4 -1 16 10 12 10 15 0
15 -10 0 -10 3 0 15 7 9 8 15 2 15 -6 0 -9 11 -7 25 1 14 -2 28 -7 31 -5 3 -1
15 9 27 10 11 12 17 5 13 -9 -5 -11 2 -7 29 2 19 1 34 -3 31 -4 -2 -6 32 -4
76 2 47 0 78 -6 75 -12 -8 -12 25 1 41 6 8 5 17 -4 29 -8 9 -9 14 -3 10 13 -7
14 80 1 100 -4 6 -2 15 4 19 8 4 7 9 -2 15 -11 6 -11 11 -2 20 18 18 -7 41
-26 25 -12 -8 -13 -8 -7 2 9 15 1 15 -26 1 -15 -8 -19 -8 -14 0 9 14 0 14 -26
0 -15 -8 -19 -8 -14 0 4 6 4 11 1 11 -4 0 -16 -5 -27 -11 -15 -8 -19 -8 -14 0
4 6 2 11 -3 11 -6 0 -11 13 -11 30 l0 29 -83 -1 c-94 -2 -106 2 -100 34 4 21
1 23 -31 22 -19 -1 -39 -5 -45 -9 -6 -3 -11 -3 -11 2 0 12 -94 10 -102 -2 -5
-7 -8 -7 -8 0 0 6 -27 10 -60 10 -34 0 -59 -5 -58 -10 2 -6 11 -9 21 -8 9 2
17 -1 17 -5 0 -17 -41 -9 -55 11 -10 15 -15 17 -15 7 0 -10 -3 -11 -8 -4 -9
13 -64 13 -74 -1 -5 -7 -8 -7 -8 0 0 12 -130 12 -149 1 -6 -4 -11 -2 -11 3 0
6 -5 11 -11 11 -5 0 -8 -4 -5 -9 4 -5 -3 -7 -14 -4 -18 5 -25 -5 -21 -29 0 -5
-7 -8 -17 -9 -10 0 -12 -3 -5 -6 10 -3 9 -8 -2 -20 -8 -8 -13 -19 -10 -24 4
-5 0 -9 -8 -9 -9 0 -13 -9 -12 -25 2 -17 -2 -25 -11 -25 -9 0 -13 -4 -9 -9 3
-5 1 -12 -5 -16 -6 -4 -8 -10 -5 -15 3 -4 -2 -11 -11 -14 -9 -4 -14 -13 -10
-21 3 -8 1 -15 -5 -15 -6 0 -9 -6 -6 -14 3 -8 -1 -17 -9 -20 -9 -3 -12 -10 -9
-16 3 -5 2 -10 -2 -10 -9 0 -43 -72 -43 -91 0 -5 -5 -7 -12 -3 -8 5 -9 2 -5
-10 4 -10 1 -19 -8 -22 -8 -4 -13 -10 -10 -14 3 -5 1 -11 -5 -15 -6 -4 -8 -11
-5 -16 4 -5 2 -9 -4 -9 -5 0 -8 -9 -6 -19 3 -15 -1 -18 -12 -14 -10 4 -14 2
-9 -5 3 -6 2 -13 -4 -17 -6 -4 -8 -11 -5 -16 4 -5 1 -9 -5 -9 -6 0 -8 -4 -5
-10 3 -5 1 -10 -4 -10 -6 0 -11 -7 -11 -15 0 -8 -4 -15 -10 -15 -5 0 -7 -7 -4
-15 4 -8 11 -12 17 -8 6 3 7 1 3 -6 -6 -9 -11 -9 -24 1 -13 11 -15 10 -9 -4 3
-10 2 -18 -4 -18 -6 0 -8 -4 -4 -10 3 -5 12 -7 20 -3 8 3 15 0 15 -5 0 -6 -12
-9 -26 -6 -15 3 -23 1 -20 -5 4 -5 2 -13 -4 -16 -8 -5 -7 -11 1 -21 9 -12 9
-13 -2 -9 -19 7 -51 -59 -36 -74 14 -14 -8 -40 -31 -37 -13 2 -18 15 -20 57
-2 29 -9 57 -15 61 -9 6 -8 11 3 18 13 9 13 11 0 20 -8 5 -10 10 -5 10 6 0 3
5 -5 10 -8 5 -10 10 -3 10 15 0 10 29 -8 41 -9 5 -9 9 -2 9 7 0 11 16 10 44
-1 24 -5 42 -9 40 -4 -3 -6 11 -4 31 1 20 -2 39 -7 42 -5 3 -3 9 4 14 9 5 9 9
3 9 -7 0 -12 15 -12 33 -1 49 -12 139 -22 170 -6 19 -6 27 3 27 8 0 9 2 1 8
-6 4 -10 17 -9 30 1 13 -2 25 -7 28 -4 3 -6 10 -3 15 8 12 -2 11 -27 -2 -11
-6 -18 -7 -15 -2 3 5 -15 10 -41 11 -27 1 -49 -3 -53 -10 -7 -11 -18 6 -33 54
-4 13 -19 17 -78 18 -102 1 -109 2 -100 14 10 14 10 36 0 36 -5 0 -11 0 -14 0
-4 0 -3 -6 2 -13 5 -7 1 -4 -8 6 -13 13 -18 15 -18 6 0 -9 -3 -10 -8 -3 -9 13
-64 13 -74 -1 -5 -7 -8 -7 -8 0 0 12 -179 13 -198 1 -6 -4 -12 -4 -12 1 0 10
-131 10 -148 -1 -6 -4 -12 -3 -12 1 0 10 -41 10 -58 -1 -7 -4 -12 -4 -12 1 0
14 -186 10 -200 -5z m67 -14 c-3 -8 -6 -5 -6 6 -1 11 2 17 5 13 3 -3 4 -12 1
-19z m254 -1 c-10 -9 -11 -8 -5 6 3 10 9 15 12 12 3 -3 0 -11 -7 -18z m160 0
c-10 -9 -11 -8 -5 6 3 10 9 15 12 12 3 -3 0 -11 -7 -18z m-447 5 c2 -4 -5 -9
-17 -9 -17 -2 -19 0 -7 7 18 12 18 12 24 2z m86 -2 c0 -4 -7 -7 -15 -6 -23 3
-26 12 -5 13 11 1 20 -2 20 -7z m51 -13 c-10 -9 -11 -8 -5 6 3 10 9 15 12 12
3 -3 0 -11 -7 -18z m203 15 c3 -5 -1 -9 -9 -9 -8 0 -12 4 -9 9 3 4 7 8 9 8 2
0 6 -4 9 -8z m221 -1 c-8 -7 -85 -8 -80 -1 2 3 22 6 44 6 22 0 38 -2 36 -5z
m90 0 c-9 -8 -36 -10 -30 -2 2 4 11 8 20 8 8 0 13 -3 10 -6z m1109 0 c-9 -9
-34 -9 -34 -1 0 5 9 8 20 7 10 -1 17 -3 14 -6z m91 0 c-9 -8 -36 -10 -30 -2 2
4 11 8 20 8 8 0 13 -3 10 -6z m152 -6 c0 -8 -4 -12 -9 -9 -5 3 -6 10 -3 15 9
13 12 11 12 -6z m97 4 c3 -3 -5 -5 -19 -5 -13 0 -22 3 -19 7 4 8 30 6 38 -2z
m-1417 -14 c0 -8 -4 -12 -9 -9 -5 3 -6 10 -3 15 9 13 12 11 12 -6z m1200 0 c0
-8 -4 -12 -9 -9 -5 3 -6 10 -3 15 9 13 12 11 12 -6z m-1272 -5 c3 -6 -1 -7 -9
-4 -18 7 -21 14 -7 14 6 0 13 -4 16 -10z m1200 0 c3 -6 -1 -7 -9 -4 -18 7 -21
14 -7 14 6 0 13 -4 16 -10z m240 0 c3 -6 -1 -7 -9 -4 -18 7 -21 14 -7 14 6 0
13 -4 16 -10z m-2010 -9 c3 -5 2 -12 -3 -15 -5 -3 -9 1 -9 9 0 17 3 19 12 6z
m1722 -6 c0 -8 -4 -12 -9 -9 -5 3 -6 10 -3 15 9 13 12 11 12 -6z m-1677 1 c0
-2 -7 -7 -16 -10 -8 -3 -12 -2 -9 4 6 10 25 14 25 6z m1645 -6 c3 -6 -1 -7 -9
-4 -18 7 -21 14 -7 14 6 0 13 -4 16 -10z m-125 -41 c0 -5 -4 -9 -8 -9 -5 0 -9
7 -9 15 0 8 4 12 9 9 4 -3 8 -9 8 -15z m55 2 c3 -5 2 -12 -3 -15 -5 -3 -9 1
-9 9 0 17 3 19 12 6z m-1675 -23 c0 -4 -4 -8 -9 -8 -6 0 -12 4 -15 8 -3 5 1 9
9 9 8 0 15 -4 15 -9z m1631 -15 c-12 -20 -14 -14 -5 12 4 9 9 14 11 11 3 -2 0
-13 -6 -23z m-1595 -8 c-3 -23 -12 -26 -13 -5 -1 11 2 20 7 20 4 0 7 -7 6 -15z
m984 9 c0 -8 -19 -13 -24 -6 -3 5 1 9 9 9 8 0 15 -2 15 -3z m-940 -22 c0 -5
-7 -9 -15 -9 -8 0 -12 4 -9 9 3 4 9 8 15 8 5 0 9 -4 9 -8z m955 -36 c-1 -51
-11 -52 -11 -1 0 24 3 42 6 40 4 -2 6 -20 5 -39z m1442 29 c0 -8 -4 -12 -9 -9
-5 3 -6 10 -3 15 9 13 12 11 12 -6z m-761 -7 c5 4 5 3 1 -2 -12 -15 -34 -15
-34 0 0 9 4 11 12 4 7 -5 16 -6 21 -2z m-1726 -2 c0 -2 -8 -10 -17 -17 -16
-13 -17 -12 -4 4 13 16 21 21 21 13z m1574 -4 c3 -5 -1 -9 -9 -9 -8 0 -12 4
-9 9 3 4 7 8 9 8 2 0 6 -4 9 -8z m70 0 c3 -5 -1 -9 -9 -9 -8 0 -12 4 -9 9 3 4
7 8 9 8 2 0 6 -4 9 -8z m-550 -20 c3 -5 -1 -9 -9 -9 -8 0 -15 4 -15 9 0 4 4 8
9 8 6 0 12 -4 15 -8z m541 -22 c10 -11 16 -20 13 -20 -3 0 -13 9 -23 20 -10
11 -16 20 -13 20 3 0 13 -9 23 -20z m960 0 c10 -11 16 -20 13 -20 -3 0 -13 9
-23 20 -10 11 -16 20 -13 20 3 0 13 -9 23 -20z m-2589 -26 c0 -18 -3 -31 -7
-28 -4 2 -6 12 -4 22 1 9 -1 22 -6 28 -5 6 -4 11 4 11 8 0 13 -13 13 -33z m84
26 c0 -5 -5 -10 -11 -10 -5 0 -7 5 -4 10 3 6 8 10 11 10 2 0 4 -4 4 -10z m917
3 c-4 -3 -1 -13 6 -22 11 -14 10 -14 -5 -2 -16 12 -16 31 -1 31 4 0 3 -3 0 -7z
m534 -10 c13 -16 12 -17 -3 -4 -10 7 -18 15 -18 17 0 8 8 3 21 -13z m960 0
c12 -16 12 -17 -2 -6 -9 7 -19 10 -22 6 -4 -3 -7 -1 -7 5 0 17 16 15 31 -5z
m-2460 -26 c-10 -9 -11 -8 -5 6 3 10 9 15 12 12 3 -3 0 -11 -7 -18z m1640 6
c13 -16 12 -17 -3 -4 -17 13 -22 21 -14 21 2 0 10 -8 17 -17z m-1598 -8 c-3
-9 -8 -14 -10 -11 -3 3 -2 9 2 15 9 16 15 13 8 -4z m917 -1 c0 -8 -19 -13 -24
-6 -3 5 1 9 9 9 8 0 15 -2 15 -3z m114 -2 c3 -5 -1 -9 -9 -9 -8 0 -12 4 -9 9
3 4 7 8 9 8 2 0 6 -4 9 -8z m530 -3 c3 -3 -10 -5 -29 -4 -18 0 -36 3 -39 6 -3
3 10 5 29 4 18 0 36 -3 39 -6z m851 2 c-9 -8 -36 -10 -30 -2 2 4 11 8 20 8 8
0 13 -3 10 -6z m109 -2 c3 -3 -10 -5 -29 -4 -18 0 -36 3 -39 6 -3 3 10 5 29 4
18 0 36 -3 39 -6z m-1563 -51 c-11 -11 -13 -10 -7 0 4 7 2 21 -5 30 -12 15
-11 15 6 0 16 -15 17 -20 6 -30z m45 18 c1 -7 -4 -13 -12 -13 -9 0 -11 4 -4
12 5 7 8 15 5 18 -3 4 -2 5 2 2 4 -3 8 -11 9 -19z m520 2 c5 4 6 3 2 -2 -4 -5
-3 -14 2 -21 7 -8 5 -12 -5 -12 -8 0 -13 3 -10 5 3 3 -3 15 -12 26 -14 15 -14
18 -2 8 9 -6 20 -8 25 -4z m984 -10 c0 -4 -4 -8 -9 -8 -6 0 -12 4 -15 8 -3 5
1 9 9 9 8 0 15 -4 15 -9z m-2665 -28 c-1 -11 -4 -22 -7 -25 -4 -5 -4 34 1 43
4 8 7 -1 6 -18z m1090 10 c3 -6 -1 -7 -9 -4 -18 7 -21 14 -7 14 6 0 13 -4 16
-10z m526 -14 c-12 -14 -35 -16 -47 -3 -4 3 3 5 14 2 12 -2 24 0 27 6 4 5 9 9
12 9 3 0 0 -6 -6 -14z m1062 -1 c-3 -9 -8 -14 -10 -11 -3 3 -2 9 2 15 9 16 15
13 8 -4z m-2573 -4 c0 -6 -4 -12 -8 -15 -5 -3 -9 1 -9 9 0 8 4 15 9 15 4 0 8
-4 8 -9z m36 -6 c-3 -23 -12 -26 -13 -5 -1 11 2 20 7 20 4 0 7 -7 6 -15z
m2504 5 c0 -5 -2 -10 -4 -10 -3 0 -8 5 -11 10 -3 6 -1 10 4 10 6 0 11 -4 11
-10z m-1005 -9 c3 -5 2 -12 -3 -15 -5 -3 -9 1 -9 9 0 17 3 19 12 6z m-518 -18
c0 -9 -4 -10 -14 -2 -7 6 -13 12 -13 14 0 1 6 2 13 2 8 0 14 -6 14 -14z m1438
9 c-3 -3 0 -11 6 -19 17 -20 5 -16 -14 5 -15 16 -15 19 -2 19 8 0 13 -3 10 -5z
m-882 -17 c-3 -9 -8 -14 -10 -11 -3 3 -2 9 2 15 9 16 15 13 8 -4z m-1662 -12
c13 -16 12 -17 -3 -4 -15 11 -21 11 -35 0 -16 -13 -17 -12 -4 4 7 9 17 17 21
17 4 0 14 -8 21 -17z m1554 7 c3 -6 -1 -7 -9 -4 -18 7 -21 14 -7 14 6 0 13 -4
16 -10z m-450 -27 c-1 -10 3 -25 9 -33 9 -13 9 -13 -6 -2 -13 10 -16 26 -9 50
4 11 9 -2 6 -15z m462 -7 c0 -15 -21 -16 -34 -1 -4 4 -3 5 4 1 6 -3 14 -2 18
4 8 14 12 13 12 -4z m-383 -5 c3 -5 -2 -15 -12 -22 -15 -12 -16 -12 -5 2 7 9
10 19 6 22 -3 4 -4 7 0 7 3 0 8 -4 11 -9z m1491 -21 c-3 -5 -12 -10 -18 -10
-7 0 -6 4 3 10 19 12 23 12 15 0z m-1145 -21 c0 -5 -4 -9 -8 -9 -5 0 -9 7 -9
15 0 8 4 12 9 9 4 -3 8 -9 8 -15z m-1563 -4 c0 -8 -4 -12 -9 -9 -4 3 -8 9 -8
15 0 5 4 9 8 9 5 0 9 -7 9 -15z m2623 -11 c0 -8 -19 -13 -24 -6 -3 5 1 9 9 9
8 0 15 -2 15 -3z m-2581 -17 c8 -10 7 -14 -2 -14 -8 0 -14 6 -14 14 0 7 1 13
2 13 2 0 8 -6 14 -13z m2538 -2 c0 -8 -4 -12 -9 -9 -5 3 -6 10 -3 15 9 13 12
11 12 -6z m-1417 -4 c0 -6 -4 -12 -8 -15 -5 -3 -9 1 -9 9 0 8 4 15 9 15 4 0 8
-4 8 -9z m380 -1 c0 -5 -2 -10 -4 -10 -3 0 -8 5 -11 10 -3 6 -1 10 4 10 6 0
11 -4 11 -10z m40 6 c0 -3 -4 -8 -10 -11 -5 -3 -10 -1 -10 4 0 6 5 11 10 11 6
0 10 -2 10 -4z m60 -5 c0 -6 -4 -12 -8 -15 -5 -3 -9 1 -9 9 0 8 4 15 9 15 4 0
8 -4 8 -9z m973 -16 c-3 -9 -8 -14 -10 -11 -3 3 -2 9 2 15 9 16 15 13 8 -4z
m-2522 -12 c13 -16 12 -17 -3 -4 -10 7 -18 15 -18 17 0 8 8 3 21 -13z m-34 -8
c0 -8 -4 -15 -9 -15 -10 0 -11 14 -1 23 9 10 10 9 10 -8z m1461 -10 c-3 -3 -9
2 -12 12 -6 14 -5 15 5 6 7 -7 10 -15 7 -18z m79 10 c0 -8 -4 -15 -9 -15 -10
0 -11 14 -1 23 9 10 10 9 10 -8z m-443 -11 c3 -8 2 -12 -4 -9 -6 3 -10 10 -10
16 0 14 7 11 14 -7z m330 8 c3 -5 -1 -9 -9 -9 -8 0 -12 4 -9 9 3 4 7 8 9 8 2
0 6 -4 9 -8z m1180 -20 c3 -5 -1 -9 -9 -9 -8 0 -15 4 -15 9 0 4 4 8 9 8 6 0
12 -4 15 -8z m41 -2 c-3 -5 -12 -10 -18 -10 -7 0 -6 4 3 10 19 12 23 12 15 0z
m-2645 -3 c0 -2 -8 -11 -18 -20 -15 -14 -19 -15 -19 -2 0 8 4 12 8 9 4 -2 10
0 14 6 6 10 15 14 15 7z m2527 -15 c-10 -10 -14 -22 -10 -27 5 -4 2 -5 -5 -1
-11 6 -10 12 4 27 9 10 19 19 22 19 3 0 -2 -8 -11 -18z m-1451 -4 c3 -4 -1 -5
-10 -4 -8 1 -18 5 -22 8 -3 4 1 5 10 4 8 -1 18 -5 22 -8z m449 -18 c-3 -5 -12
-10 -18 -10 -7 0 -6 4 3 10 19 12 23 12 15 0z m-1588 -15 c0 -8 -4 -12 -9 -9
-5 3 -6 10 -3 15 9 13 12 11 12 -6z m-53 -3 c3 -5 -1 -9 -9 -9 -8 0 -15 4 -15
9 0 4 4 8 9 8 6 0 12 -4 15 -8z m1232 -17 c-1 -8 -5 -17 -8 -21 -5 -4 -4 16 1
34 3 9 9 -1 7 -13z m48 -3 c3 -5 -1 -9 -9 -9 -8 0 -15 4 -15 9 0 4 4 8 9 8 6
0 12 -4 15 -8z m1440 0 c3 -5 -1 -9 -9 -9 -8 0 -15 4 -15 9 0 4 4 8 9 8 6 0
12 -4 15 -8z m-2663 -19 c13 -16 12 -17 -3 -4 -10 7 -18 15 -18 17 0 8 8 3 21
-13z m1145 -5 c3 -4 -1 -5 -10 -4 -8 1 -18 5 -22 8 -3 4 1 5 10 4 8 -1 18 -5
22 -8z m314 2 c0 -5 -5 -10 -11 -10 -5 0 -7 5 -4 10 3 6 8 10 11 10 2 0 4 -4
4 -10z m100 1 c0 -6 -4 -12 -8 -15 -5 -3 -9 1 -9 9 0 8 4 15 9 15 4 0 8 -4 8
-9z m-43 -36 c0 -8 -4 -12 -9 -9 -5 3 -6 10 -3 15 9 13 12 11 12 -6z m-302 -5
c3 -5 1 -10 -4 -10 -6 0 -11 5 -11 10 0 6 2 10 4 10 3 0 8 -4 11 -10z m245 6
c0 -3 -4 -8 -10 -11 -5 -3 -10 -1 -10 4 0 6 5 11 10 11 6 0 10 -2 10 -4z
m1150 0 c0 -2 -8 -10 -17 -17 -16 -13 -17 -12 -4 4 13 16 21 21 21 13z m45 -6
c3 -5 1 -10 -4 -10 -6 0 -11 5 -11 10 0 6 2 10 4 10 3 0 8 -4 11 -10z m-2715
-18 c0 -5 -7 -9 -15 -9 -8 0 -12 4 -9 9 3 4 9 8 15 8 5 0 9 -4 9 -8z m84 0 c3
-5 -1 -9 -9 -9 -8 0 -15 4 -15 9 0 4 4 8 9 8 6 0 12 -4 15 -8z m2680 -4 c-3
-4 -9 -8 -15 -8 -5 0 -9 4 -9 8 0 5 7 9 15 9 8 0 12 -4 9 -9z m-1169 -10 c5 4
5 1 1 -6 -6 -10 -11 -10 -22 -1 -8 6 -14 14 -14 16 0 3 6 0 13 -6 8 -6 18 -7
22 -3z m-315 -8 c0 -5 -2 -10 -4 -10 -3 0 -8 5 -11 10 -3 6 -1 10 4 10 6 0 11
-4 11 -10z m1440 6 c0 -3 -4 -8 -10 -11 -5 -3 -10 -1 -10 4 0 6 5 11 10 11 6
0 10 -2 10 -4z m-2600 -22 c0 -8 -19 -13 -24 -6 -3 5 1 9 9 9 8 0 15 -2 15 -3z
m1437 -19 c0 -8 -4 -12 -9 -9 -5 3 -6 10 -3 15 9 13 12 11 12 -6z m-347 -21
c0 -8 -19 -13 -24 -6 -3 5 1 9 9 9 8 0 15 -2 15 -3z m40 0 c0 -8 -19 -13 -24
-6 -3 5 1 9 9 9 8 0 15 -2 15 -3z m274 -2 c3 -5 -1 -9 -9 -9 -8 0 -15 4 -15 9
0 4 4 8 9 8 6 0 12 -4 15 -8z m-1434 -18 c0 -8 -19 -13 -24 -6 -3 5 1 9 9 9 8
0 15 -2 15 -3z m1186 -28 c0 -19 -3 -33 -7 -31 -7 5 -4 65 4 65 1 0 3 -15 3
-34z m44 19 c-12 -14 -5 -39 9 -31 4 3 13 0 21 -5 11 -7 10 -8 -8 -6 -34 5
-48 23 -32 42 7 8 15 15 17 15 3 0 0 -7 -7 -15z m115 5 c3 -5 1 -10 -4 -10 -6
0 -11 5 -11 10 0 6 2 10 4 10 3 0 8 -4 11 -10z m1324 7 c-2 -2 -11 -8 -20 -15
-12 -9 -16 -9 -16 1 0 7 9 14 20 14 11 1 18 1 16 0z m-2804 -16 c3 -5 2 -12
-3 -15 -5 -3 -9 1 -9 9 0 17 3 19 12 6z m1283 -16 c-3 -3 -9 2 -12 12 -6 14
-5 15 5 6 7 -7 10 -15 7 -18z m-1204 -21 c3 -8 2 -12 -4 -9 -6 3 -10 10 -10
16 0 14 7 11 14 -7z m1367 -11 c13 -16 12 -17 -3 -4 -17 13 -22 21 -14 21 2 0
10 -8 17 -17z m-1446 -11 c-3 -3 -11 0 -18 7 -9 10 -8 11 6 5 10 -3 15 -9 12
-12z m-40 -34 c-7 -32 -13 -32 -11 1 0 16 4 27 8 25 4 -2 5 -14 3 -26z m155
28 c0 -2 -8 -10 -17 -17 -16 -13 -17 -12 -4 4 13 16 21 21 21 13z m2666 -8 c3
-4 -2 -5 -13 -4 -10 2 -25 -2 -33 -8 -13 -9 -13 -9 -2 6 12 16 35 18 48 6z
m-1462 -29 c-8 -9 -26 -16 -39 -15 -29 1 -22 11 8 11 12 0 21 5 20 11 -1 6 5
11 13 11 12 0 12 -3 -2 -18z m166 9 c0 -4 -4 -8 -9 -8 -6 0 -12 4 -15 8 -3 5
1 9 9 9 8 0 15 -4 15 -9z m-1436 -36 c3 -5 -1 -9 -9 -9 -8 0 -15 4 -15 9 0 4
4 8 9 8 6 0 12 -4 15 -8z m1396 0 c0 -5 -7 -9 -15 -9 -8 0 -12 4 -9 9 3 4 9 8
15 8 5 0 9 -4 9 -8z m-154 -24 c3 -4 -1 -5 -10 -4 -8 1 -18 5 -22 8 -3 4 1 5
10 4 8 -1 18 -5 22 -8z m38 0 c-3 -4 -9 -8 -15 -8 -5 0 -9 4 -9 8 0 5 7 9 15
9 8 0 12 -4 9 -9z m156 8 c0 -3 -4 -8 -10 -11 -5 -3 -10 -1 -10 4 0 6 5 11 10
11 6 0 10 -2 10 -4z m-1485 -15 c3 -5 2 -12 -3 -15 -5 -3 -9 1 -9 9 0 17 3 19
12 6z m76 -18 c13 -16 12 -17 -3 -4 -10 7 -18 15 -18 17 0 8 8 3 21 -13z
m2734 7 c3 -6 -1 -7 -9 -4 -18 7 -21 14 -7 14 6 0 13 -4 16 -10z m-2770 -20
c3 -5 1 -10 -4 -10 -6 0 -11 5 -11 10 0 6 2 10 4 10 3 0 8 -4 11 -10z m-98
-35 c0 -8 -4 -15 -9 -15 -10 0 -11 14 -1 23 9 10 10 9 10 -8z m2783 -1 c0 -8
-19 -13 -24 -6 -3 5 1 9 9 9 8 0 15 -2 15 -3z m-1282 -29 c-3 -3 -9 2 -12 12
-6 14 -5 15 5 6 7 -7 10 -15 7 -18z m-1522 -31 c0 -20 -11 -25 -11 -6 0 4 -3
12 -7 18 -4 6 -1 11 5 11 7 0 13 -11 13 -23z m2814 0 c0 -8 -19 -13 -24 -6 -3
5 1 9 9 9 8 0 15 -2 15 -3z m-2750 -23 c0 -6 -4 -12 -8 -15 -5 -3 -9 1 -9 9 0
8 4 15 9 15 4 0 8 -4 8 -9z m2777 -6 c0 -8 -4 -12 -9 -9 -5 3 -6 10 -3 15 9
13 12 11 12 -6z m-39 -20 c-3 -3 -9 2 -12 12 -6 14 -5 15 5 6 7 -7 10 -15 7
-18z m82 -10 c14 -19 14 -19 -2 -6 -10 7 -18 18 -18 24 0 6 1 8 3 6 1 -2 9
-13 17 -24z m-2780 -1 c0 -8 -19 -13 -24 -6 -3 5 1 9 9 9 8 0 15 -2 15 -3z
m2740 2 c0 -3 -4 -8 -10 -11 -5 -3 -10 -1 -10 4 0 6 5 11 10 11 6 0 10 -2 10
-4z m-2840 -46 c0 -5 -2 -10 -4 -10 -3 0 -8 5 -11 10 -3 6 -1 10 4 10 6 0 11
-4 11 -10z m40 6 c0 -3 -4 -8 -10 -11 -5 -3 -10 -1 -10 4 0 6 5 11 10 11 6 0
10 -2 10 -4z m2804 -28 c-3 -4 -9 -8 -15 -8 -5 0 -9 4 -9 8 0 5 7 9 15 9 8 0
12 -4 9 -9z m76 2 c0 -5 -2 -10 -4 -10 -3 0 -8 5 -11 10 -3 6 -1 10 4 10 6 0
11 -4 11 -10z m-2900 -20 c0 -5 -4 -10 -10 -10 -5 0 -10 5 -10 10 0 6 5 10 10
10 6 0 10 -4 10 -10z m2777 -10 c-2 -11 -6 -22 -9 -26 -4 -3 -5 2 -3 13 2 10
4 21 4 26 1 4 3 7 6 7 3 0 4 -9 2 -20z m74 -3 c-10 -9 -11 -8 -5 6 3 10 9 15
12 12 3 -3 0 -11 -7 -18z m-27 -5 c3 -5 -1 -9 -9 -9 -8 0 -15 4 -15 9 0 4 4 8
9 8 6 0 12 -4 15 -8z m-2907 -17 c0 -8 -4 -15 -9 -15 -10 0 -11 14 -1 23 9 10
10 9 10 -8z m63 -5 c0 -5 -5 -10 -11 -10 -5 0 -7 5 -4 10 3 6 8 10 11 10 2 0
4 -4 4 -10z m40 6 c0 -3 -4 -8 -10 -11 -5 -3 -10 -1 -10 4 0 6 5 11 10 11 6 0
10 -2 10 -4z m2795 -46 c3 -5 1 -10 -4 -10 -6 0 -11 5 -11 10 0 6 2 10 4 10 3
0 8 -4 11 -10z m-2914 -23 c-6 -8 -9 -16 -6 -19 3 -2 -2 -5 -10 -5 -13 0 -13
3 2 19 19 21 31 25 14 5z m35 -21 c0 -19 -3 -33 -7 -31 -7 5 -4 65 4 65 1 0 3
-15 3 -34z m555 17 c12 -16 12 -17 -2 -6 -9 7 -20 9 -24 5 -5 -4 -5 -1 -1 6 9
16 11 15 27 -5z m2280 -6 c-10 -9 -11 -8 -5 6 3 10 9 15 12 12 3 -3 0 -11 -7
-18z m89 19 c0 -3 -4 -8 -10 -11 -5 -3 -10 -1 -10 4 0 6 5 11 10 11 6 0 10 -2
10 -4z m-43 -21 c0 -8 -4 -12 -9 -9 -5 3 -6 10 -3 15 9 13 12 11 12 -6z m-957
-19 c0 -2 -7 -7 -16 -10 -8 -3 -12 -2 -9 4 6 10 25 14 25 6z m924 -4 c3 -5 -1
-9 -9 -9 -8 0 -12 4 -9 9 3 4 7 8 9 8 2 0 6 -4 9 -8z m-2804 -5 c0 -2 -10 -12
-22 -23 l-23 -19 19 23 c18 21 26 27 26 19z m673 -12 c-3 -9 -8 -14 -10 -11
-3 3 -2 9 2 15 9 16 15 13 8 -4z m-153 -4 c0 -6 -4 -12 -8 -15 -5 -3 -9 1 -9
9 0 8 4 15 9 15 4 0 8 -4 8 -9z m1520 -16 c0 -7 -30 -13 -34 -7 -3 4 4 9 15 9
10 1 19 0 19 -2z m760 -10 c-5 -7 -9 -14 -7 -16 1 -2 0 -3 -2 -1 -11 7 -7 29
5 29 9 0 11 -4 4 -12z m35 -32 c-1 -15 3 -35 9 -43 8 -12 8 -13 -4 -2 -14 12
-23 85 -10 77 4 -2 6 -17 5 -32z m-2911 15 c-3 -4 -9 -8 -15 -8 -5 0 -9 4 -9
8 0 5 7 9 15 9 8 0 12 -4 9 -9z m67 -30 c-11 -11 -13 -10 -7 0 4 7 2 21 -5 30
-12 15 -11 15 6 0 16 -15 17 -20 6 -30z m684 -38 c1 -22 -2 -37 -5 -34 -3 3
-5 22 -5 42 0 25 -4 36 -13 34 -8 -1 -11 2 -7 9 13 20 30 -10 30 -51z m1181
35 c-1 -8 -5 -17 -8 -21 -5 -4 -4 16 1 34 3 9 9 -1 7 -13z m-1910 -8 c4 -3 -4
-4 -16 -2 -30 6 -40 16 -12 12 12 -2 24 -6 28 -10z m1865 -4 c13 -16 12 -17
-3 -4 -17 13 -22 21 -14 21 2 0 10 -8 17 -17z m214 7 c-3 -5 -12 -10 -18 -10
-7 0 -6 4 3 10 19 12 23 12 15 0z m-2144 -17 c13 -16 12 -17 -3 -4 -17 13 -22
21 -14 21 2 0 10 -8 17 -17z m123 -1 c3 -5 -1 -9 -9 -9 -8 0 -12 4 -9 9 3 4 7
8 9 8 2 0 6 -4 9 -8z m636 -2 c0 -5 -2 -10 -4 -10 -3 0 -8 5 -11 10 -3 6 -1
10 4 10 6 0 11 -4 11 -10z m2275 1 c3 -5 2 -12 -3 -15 -5 -3 -9 1 -9 9 0 17 3
19 12 6z m-1121 -19 c3 -5 -1 -9 -9 -9 -8 0 -12 4 -9 9 3 4 7 8 9 8 2 0 6 -4
9 -8z m70 0 c3 -5 -1 -9 -9 -9 -8 0 -12 4 -9 9 3 4 7 8 9 8 2 0 6 -4 9 -8z
m172 -4 c3 -4 -1 -5 -10 -4 -8 1 -18 5 -22 8 -3 4 1 5 10 4 8 -1 18 -5 22 -8z
m-2151 -18 c-3 -5 -12 -10 -18 -10 -7 0 -6 4 3 10 19 12 23 12 15 0z m2992
-11 c1 -10 -3 -22 -9 -25 -7 -4 -8 -2 -4 5 4 6 3 18 -3 25 -8 9 -7 13 2 13 7
0 14 -8 14 -18z m-42 1 c-4 -6 -1 -19 6 -28 12 -16 12 -16 -5 0 -16 14 -15 38
0 38 3 0 2 -5 -1 -10z m-2918 -15 c0 -8 -4 -12 -9 -9 -5 3 -6 10 -3 15 9 13
12 11 12 -6z m1840 0 c0 -8 -4 -12 -9 -9 -5 3 -6 10 -3 15 9 13 12 11 12 -6z
m43 1 c0 -2 -8 -10 -17 -17 -16 -13 -17 -12 -4 4 13 16 21 21 21 13z m-1816
-35 c-7 -8 -54 -9 -59 -2 -2 4 12 7 30 7 19 0 32 -3 29 -5z m453 -6 c0 -8 -4
-12 -9 -9 -5 3 -6 10 -3 15 9 13 12 11 12 -6z m1427 7 c3 -5 -1 -9 -9 -9 -8 0
-12 4 -9 9 3 4 7 8 9 8 2 0 6 -4 9 -8z m96 4 c0 -3 -4 -8 -10 -11 -5 -3 -10
-1 -10 4 0 6 5 11 10 11 6 0 10 -2 10 -4z m-1489 -33 c13 -16 12 -17 -3 -4
-10 7 -18 15 -18 17 0 8 8 3 21 -13z m1266 -3 c1 -11 -2 -20 -7 -20 -6 0 -7
17 -1 38 3 8 7 -1 8 -18z m-1801 -16 c1 -9 0 -13 -4 -10 -3 4 -7 14 -8 22 -1
9 0 13 4 10 3 -4 7 -14 8 -22z m1859 -18 c-1 -51 -11 -52 -11 -1 0 24 3 42 6
40 4 -2 6 -20 5 -39z m1041 0 c0 -25 -3 -43 -6 -41 -5 3 -6 72 -1 83 4 10 7
-4 7 -42z m-2960 -2 c0 -13 -2 -22 -5 -19 -3 3 -6 17 -7 31 0 13 2 22 5 19 3
-3 6 -17 7 -31z m559 26 c3 -5 1 -10 -4 -10 -6 0 -11 5 -11 10 0 6 2 10 4 10
3 0 8 -4 11 -10z m259 -6 c3 -8 2 -12 -4 -9 -6 3 -10 10 -10 16 0 14 7 11 14
-7z m-854 -13 c0 -6 -4 -12 -8 -15 -5 -3 -9 1 -9 9 0 8 4 15 9 15 4 0 8 -4 8
-9z m635 -1 c3 -5 1 -10 -4 -10 -6 0 -11 5 -11 10 0 6 2 10 4 10 3 0 8 -4 11
-10z m1359 -6 c3 -8 2 -12 -4 -9 -6 3 -10 10 -10 16 0 14 7 11 14 -7z m83 9
c-4 -3 -1 -13 6 -22 11 -14 10 -14 -5 -2 -21 15 -23 31 -6 31 6 0 8 -3 5 -7z
m874 -16 c-10 -9 -11 -8 -5 6 3 10 9 15 12 12 3 -3 0 -11 -7 -18z m139 19 c0
-2 -8 -10 -17 -17 -16 -13 -17 -12 -4 4 13 16 21 21 21 13z m-2373 -21 c0 -8
-4 -12 -9 -9 -5 3 -6 10 -3 15 9 13 12 11 12 -6z m1196 0 c-3 -9 -8 -14 -10
-11 -3 3 -2 9 2 15 9 16 15 13 8 -4z m-1313 -5 c0 -5 -2 -10 -4 -10 -3 0 -8 5
-11 10 -3 6 -1 10 4 10 6 0 11 -4 11 -10z m235 -1 c3 -3 -6 -5 -19 -5 -14 1
-28 4 -31 7 -3 3 6 5 19 5 14 -1 28 -4 31 -7z m1324 8 c-2 -2 -11 -8 -20 -15
-12 -9 -16 -9 -16 1 0 7 9 14 20 14 11 1 18 1 16 0z m35 -5 c3 -5 -1 -9 -9 -9
-8 0 -12 4 -9 9 3 4 7 8 9 8 2 0 6 -4 9 -8z m-334 -22 c0 -5 -5 -10 -11 -10
-5 0 -7 5 -4 10 3 6 8 10 11 10 2 0 4 -4 4 -10z m134 2 c3 -5 -1 -9 -9 -9 -8
0 -12 4 -9 9 3 4 7 8 9 8 2 0 6 -4 9 -8z m-1174 -21 c0 -6 -4 -12 -8 -15 -5
-3 -9 1 -9 9 0 8 4 15 9 15 4 0 8 -4 8 -9z m2240 3 c0 -8 -19 -13 -24 -6 -3 5
1 9 9 9 8 0 15 -2 15 -3z m-944 -29 c1 -8 -1 -17 -5 -19 -4 -3 -7 6 -7 19 0
25 8 25 12 0z m-2081 -29 c-1 -51 -11 -52 -11 -1 0 24 3 42 6 40 4 -2 6 -20 5
-39z m45 38 c0 -8 -19 -13 -24 -6 -3 5 1 9 9 9 8 0 15 -2 15 -3z m35 -12 c-3
-3 -11 0 -18 7 -9 10 -8 11 6 5 10 -3 15 -9 12 -12z m525 6 c0 -4 -4 -8 -9 -8
-6 0 -12 4 -15 8 -3 5 1 9 9 9 8 0 15 -4 15 -9z m256 -13 c1 -8 -2 -15 -6 -15
-5 0 -8 9 -7 20 1 21 10 18 13 -5z m1059 -19 c-1 -51 -11 -52 -11 -1 0 24 3
42 6 40 4 -2 6 -20 5 -39z m1036 27 c13 -16 12 -17 -3 -4 -17 13 -22 21 -14
21 2 0 10 -8 17 -17z m-2395 -26 c0 -20 -5 -34 -13 -34 -7 0 -9 5 -5 11 4 6 7
19 8 29 3 41 10 37 10 -6z m1309 13 c10 -11 16 -20 13 -20 -3 0 -13 9 -23 20
-10 11 -16 20 -13 20 3 0 13 -9 23 -20z m1152 7 c0 -8 -6 -14 -14 -14 -9 0
-10 4 -2 14 6 7 12 13 14 13 1 0 2 -6 2 -13z m-2282 -7 c-3 -5 -12 -10 -18
-10 -7 0 -6 4 3 10 19 12 23 12 15 0z m69 2 c3 -5 -1 -9 -9 -9 -8 0 -12 4 -9
9 3 4 7 8 9 8 2 0 6 -4 9 -8z m997 -5 c-6 -8 -8 -16 -5 -19 3 -3 1 -9 -4 -12
-6 -3 -9 0 -8 6 2 16 15 38 23 38 3 0 0 -6 -6 -13z m-1768 -12 c-3 -9 -8 -14
-10 -11 -3 3 -2 9 2 15 9 16 15 13 8 -4z m568 -2 c13 -16 12 -17 -3 -4 -10 7
-18 15 -18 17 0 8 8 3 21 -13z m-81 -19 c0 -8 -19 -13 -24 -6 -3 5 1 9 9 9 8
0 15 -2 15 -3z m1357 -1 c-4 -3 -1 -13 6 -22 11 -14 10 -14 -5 -2 -21 15 -23
31 -6 31 6 0 8 -3 5 -7z m1137 -5 c-3 -4 -11 -5 -19 -1 -21 7 -19 12 4 10 11
0 18 -5 15 -9z m-1218 -23 c-1 -8 -5 -17 -8 -21 -5 -4 -4 16 1 34 3 9 9 -1 7
-13z m1168 7 c3 -5 -1 -9 -9 -9 -8 0 -15 4 -15 9 0 4 4 8 9 8 6 0 12 -4 15 -8z
m-2423 -19 c13 -16 12 -17 -3 -4 -10 7 -18 15 -18 17 0 8 8 3 21 -13z m-626
-1 c-3 -3 0 -11 6 -19 17 -20 5 -16 -14 5 -15 16 -15 19 -2 19 8 0 13 -3 10
-5z m1945 -1 c0 -6 -4 -12 -8 -15 -5 -3 -9 1 -9 9 0 8 4 15 9 15 4 0 8 -4 8
-9z m184 1 c3 -5 -1 -9 -9 -9 -8 0 -12 4 -9 9 3 4 7 8 9 8 2 0 6 -4 9 -8z m75
5 c-2 -2 -11 -8 -20 -15 -12 -9 -16 -9 -16 1 0 7 9 14 20 14 11 1 18 1 16 0z
m35 -5 c3 -5 -1 -9 -9 -9 -8 0 -12 4 -9 9 3 4 7 8 9 8 2 0 6 -4 9 -8z m881
-57 c1 -30 -1 -52 -4 -49 -3 3 -6 30 -6 59 -1 30 1 52 4 49 3 -3 6 -30 6 -59z
m-1275 51 c0 -2 -8 -10 -17 -17 -16 -13 -17 -12 -4 4 13 16 21 21 21 13z
m-1760 -37 c0 -5 -5 -9 -12 -9 -6 0 -8 3 -5 7 4 3 1 13 -6 22 -11 14 -10 14 6
2 9 -7 17 -17 17 -22z m804 19 c-3 -4 -9 -8 -15 -8 -5 0 -9 4 -9 8 0 5 7 9 15
9 8 0 12 -4 9 -9z m2196 0 c0 -4 -4 -8 -9 -8 -6 0 -12 4 -15 8 -3 5 1 9 9 9 8
0 15 -4 15 -9z m-2147 -11 c4 3 7 1 7 -5 0 -17 -16 -15 -31 6 -12 15 -12 16 2
5 9 -7 19 -10 22 -6z m1207 9 c0 -2 -8 -10 -17 -17 -16 -13 -17 -12 -4 4 13
16 21 21 21 13z m-1560 -16 c0 -5 -5 -10 -11 -10 -5 0 -7 5 -4 10 3 6 8 10 11
10 2 0 4 -4 4 -10z m94 2 c3 -5 -1 -9 -9 -9 -8 0 -12 4 -9 9 3 4 7 8 9 8 2 0
6 -4 9 -8z m1197 -9 c13 -17 13 -17 -6 -3 -11 8 -22 16 -24 17 -2 2 0 3 6 3 6
0 17 -8 24 -17z m320 -6 c-10 -9 -11 -8 -5 6 3 10 9 15 12 12 3 -3 0 -11 -7
-18z m-30 -4 c13 -16 12 -17 -3 -4 -17 13 -22 21 -14 21 2 0 10 -8 17 -17z
m-2047 -9 c3 -8 2 -12 -4 -9 -6 3 -10 10 -10 16 0 14 7 11 14 -7z m1726 8 c0
-5 -7 -9 -15 -9 -8 0 -12 4 -9 9 3 4 9 8 15 8 5 0 9 -4 9 -8z m-1845 -39 c-1
-15 3 -35 9 -43 8 -12 8 -13 -4 -2 -14 12 -23 85 -10 77 4 -2 6 -17 5 -32z
m665 16 c0 -5 -4 -9 -8 -9 -5 0 -9 7 -9 15 0 8 4 12 9 9 4 -3 8 -9 8 -15z
m197 6 c0 -8 -4 -15 -9 -15 -10 0 -11 14 -1 23 9 10 10 9 10 -8z m-262 -5 c3
-5 1 -10 -4 -10 -6 0 -11 5 -11 10 0 6 2 10 4 10 3 0 8 -4 11 -10z m360 -28
c-3 -3 -11 0 -18 7 -9 10 -8 11 6 5 10 -3 15 -9 12 -12z m2130 8 c3 -6 -1 -7
-9 -4 -18 7 -21 14 -7 14 6 0 13 -4 16 -10z m-3015 -16 c0 -8 -19 -13 -24 -6
-3 5 1 9 9 9 8 0 15 -2 15 -3z m614 -2 c2 -4 -9 -7 -24 -7 -16 -1 -27 2 -25 5
5 8 44 10 49 2z m1156 -2 c0 -5 -5 -10 -11 -10 -5 0 -7 5 -4 10 3 6 8 10 11
10 2 0 4 -4 4 -10z m54 -6 c3 -8 2 -12 -4 -9 -6 3 -10 10 -10 16 0 14 7 11 14
-7z m1250 8 c3 -5 -1 -9 -9 -9 -8 0 -12 4 -9 9 3 4 7 8 9 8 2 0 6 -4 9 -8z
m-2550 -20 c3 -5 -1 -9 -9 -9 -8 0 -12 4 -9 9 3 4 7 8 9 8 2 0 6 -4 9 -8z
m381 -10 c-3 -3 -11 0 -18 7 -9 10 -8 11 6 5 10 -3 15 -9 12 -12z m825 9 c0
-6 -4 -12 -8 -15 -5 -3 -9 1 -9 9 0 8 4 15 9 15 4 0 8 -4 8 -9z m-924 -37 c0
-13 -2 -22 -5 -19 -3 3 -6 17 -7 31 0 13 2 22 5 19 3 -3 6 -17 7 -31z m2184
15 c0 -5 -4 -9 -8 -9 -5 0 -9 7 -9 15 0 8 4 12 9 9 4 -3 8 -9 8 -15z m-2504
-1 c3 -4 -1 -5 -10 -4 -8 1 -18 5 -22 8 -3 4 1 5 10 4 8 -1 18 -5 22 -8z
m1284 2 c0 -5 -2 -10 -4 -10 -3 0 -8 5 -11 10 -3 6 -1 10 4 10 6 0 11 -4 11
-10z m354 -1 c3 -3 -10 -5 -29 -4 -18 0 -36 3 -39 6 -3 3 10 5 29 4 18 0 36
-3 39 -6z m-1238 -25 c-1 -8 -6 -17 -12 -21 -5 -4 -6 -4 -2 1 4 5 3 14 -2 21
-7 8 -5 12 4 12 8 0 13 -6 12 -13z m-1016 2 c0 -2 -8 -10 -17 -17 -16 -13 -17
-12 -4 4 13 16 21 21 21 13z m56 -40 c0 -25 -3 -43 -6 -41 -5 3 -6 72 -1 83 4
10 7 -4 7 -42z m61 29 c0 -8 -4 -15 -9 -15 -10 0 -11 14 -1 23 9 10 10 9 10
-8z m506 1 c11 1 16 0 13 -4 -13 -12 -36 -10 -48 6 -11 15 -11 15 2 6 8 -6 23
-10 33 -8z m1578 -3 c13 -16 12 -17 -3 -4 -17 13 -22 21 -14 21 2 0 10 -8 17
-17z m959 13 c0 -2 -6 -9 -14 -15 -11 -9 -16 -9 -22 0 -4 7 -3 9 4 5 6 -3 13
-2 17 4 6 10 15 14 15 6z m-920 -16 c0 -5 -2 -10 -4 -10 -3 0 -8 5 -11 10 -3
6 -1 10 4 10 6 0 11 -4 11 -10z m-1325 -10 c3 -6 -1 -7 -9 -4 -18 7 -21 14 -7
14 6 0 13 -4 16 -10z m2261 -24 c-2 -38 -12 -39 -12 -1 0 18 3 32 7 30 3 -3 5
-15 5 -29z m-2472 16 c3 -5 -1 -9 -9 -9 -8 0 -15 4 -15 9 0 4 4 8 9 8 6 0 12
-4 15 -8z m1156 4 c0 -3 -4 -8 -10 -11 -5 -3 -10 -1 -10 4 0 6 5 11 10 11 6 0
10 -2 10 -4z m1275 -14 c-3 -3 -11 0 -18 7 -9 10 -8 11 6 5 10 -3 15 -9 12
-12z m-3037 -17 c-3 -3 -9 2 -12 12 -6 14 -5 15 5 6 7 -7 10 -15 7 -18z m542
21 c0 -2 -8 -10 -17 -17 -16 -13 -17 -12 -4 4 13 16 21 21 21 13z m2457 -11
c0 -8 -4 -12 -9 -9 -5 3 -6 10 -3 15 9 13 12 11 12 -6z m-1277 -5 c0 -5 -2
-10 -4 -10 -3 0 -8 5 -11 10 -3 6 -1 10 4 10 6 0 11 -4 11 -10z m485 1 c-9 -8
-36 -10 -30 -2 2 4 11 8 20 8 8 0 13 -3 10 -6z m-1730 -19 c-3 -3 0 -10 5 -17
7 -8 5 -12 -5 -12 -8 0 -13 3 -10 5 3 3 0 10 -5 17 -7 8 -5 12 5 12 8 0 13 -3
10 -5z m405 4 c0 -2 -7 -7 -16 -10 -8 -3 -12 -2 -9 4 6 10 25 14 25 6z m1313
-20 c3 3 4 -1 3 -10 -1 -8 -5 -18 -9 -21 -4 -3 -5 -2 -2 2 3 3 -3 16 -12 27
-14 15 -14 18 -2 8 9 -6 18 -9 22 -6z m-2342 -19 c-10 -9 -11 -8 -5 6 3 10 9
15 12 12 3 -3 0 -11 -7 -18z m155 11 c3 -4 -1 -5 -10 -4 -8 1 -18 5 -22 8 -3
4 1 5 10 4 8 -1 18 -5 22 -8z m1808 -4 c3 -8 2 -12 -4 -9 -6 3 -10 10 -10 16
0 14 7 11 14 -7z m340 8 c3 -5 -1 -9 -9 -9 -8 0 -12 4 -9 9 3 4 7 8 9 8 2 0 6
-4 9 -8z m900 0 c3 -5 -1 -9 -9 -9 -8 0 -12 4 -9 9 3 4 7 8 9 8 2 0 6 -4 9 -8z
m-2557 -37 c0 -8 -4 -15 -9 -15 -10 0 -11 14 -1 23 9 10 10 9 10 -8z m1644 -2
c13 -16 12 -17 -3 -4 -17 13 -22 21 -14 21 2 0 10 -8 17 -17z m-2261 -3 c0 -5
-2 -10 -4 -10 -3 0 -8 5 -11 10 -3 6 -1 10 4 10 6 0 11 -4 11 -10z m35 -8 c-3
-3 -11 0 -18 7 -9 10 -8 11 6 5 10 -3 15 -9 12 -12z m1782 3 c0 -8 -4 -12 -9
-9 -4 3 -8 9 -8 15 0 5 4 9 8 9 5 0 9 -7 9 -15z m73 9 c0 -8 -19 -13 -24 -6
-3 5 1 9 9 9 8 0 15 -2 15 -3z m34 -2 c3 -5 -1 -9 -9 -9 -8 0 -15 4 -15 9 0 4
4 8 9 8 6 0 12 -4 15 -8z m1253 -9 c0 -9 -4 -10 -12 -3 -7 5 -14 7 -17 4 -3
-3 -8 -1 -11 3 -3 5 5 9 17 9 12 0 23 -6 23 -13z m57 9 c3 -5 -1 -9 -9 -9 -8
0 -12 4 -9 9 3 4 7 8 9 8 2 0 6 -4 9 -8z m-2519 -11 c3 -5 2 -12 -3 -15 -5 -3
-9 1 -9 9 0 17 3 19 12 6z m-741 -41 c-6 -6 -10 -3 -10 10 0 13 4 16 10 10 7
-7 7 -13 0 -20z m642 18 c5 4 5 3 1 -2 -12 -15 -34 -15 -34 0 0 9 4 11 12 4 7
-5 16 -6 21 -2z m2602 -13 c-3 -3 -9 2 -12 12 -6 14 -5 15 5 6 7 -7 10 -15 7
-18z m42 21 c0 -2 -8 -10 -17 -17 -16 -13 -17 -12 -4 4 13 16 21 21 21 13z
m-3240 -16 c0 -5 -4 -10 -10 -10 -5 0 -10 5 -10 10 0 6 5 10 10 10 6 0 10 -4
10 -10z m1015 -30 c1 -17 0 -32 -4 -34 -3 -2 -7 13 -7 35 -1 45 7 45 11 -1z
m785 30 c0 -5 -5 -10 -11 -10 -5 0 -7 5 -4 10 3 6 8 10 11 10 2 0 4 -4 4 -10z
m84 2 c2 -4 -4 -8 -14 -8 -10 0 -16 4 -14 8 3 4 9 8 14 8 5 0 11 -4 14 -8z
m-907 -15 c0 -8 -6 -14 -14 -14 -9 0 -10 4 -2 14 6 7 12 13 14 13 1 0 2 -6 2
-13z m-362 -41 c-1 -51 -11 -52 -11 -1 0 24 3 42 6 40 4 -2 6 -20 5 -39z
m2585 13 c0 -5 -4 -9 -8 -9 -5 0 -9 7 -9 15 0 8 4 12 9 9 4 -3 8 -9 8 -15z
m-3186 2 c-7 -8 -74 -9 -69 -1 2 3 19 6 39 6 19 0 33 -3 30 -5z m546 0 c0 -6
-4 -12 -8 -15 -5 -3 -9 1 -9 9 0 8 4 15 9 15 4 0 8 -4 8 -9z m1160 -1 c0 -5
-5 -10 -11 -10 -5 0 -7 5 -4 10 3 6 8 10 11 10 2 0 4 -4 4 -10z m114 -1 c3 -3
-10 -5 -29 -4 -18 0 -36 3 -39 6 -3 3 10 5 29 4 18 0 36 -3 39 -6z m466 1 c0
-5 -5 -10 -11 -10 -5 0 -7 5 -4 10 3 6 8 10 11 10 2 0 4 -4 4 -10z m960 -22
c0 -4 -4 -8 -9 -8 -6 0 -12 4 -15 8 -3 5 1 9 9 9 8 0 15 -4 15 -9z m-43 -12
c0 -15 -21 -16 -34 -1 -4 4 -3 5 4 1 6 -3 14 -2 18 4 8 14 12 13 12 -4z
m-3160 -11 c0 -8 -4 -12 -9 -9 -5 3 -6 10 -3 15 9 13 12 11 12 -6z m520 8 c-4
-3 -2 -11 3 -18 7 -8 5 -12 -4 -12 -8 0 -12 7 -11 16 5 22 4 21 12 21 3 0 3
-3 0 -7z m1723 3 c0 -3 -4 -8 -10 -11 -5 -3 -10 -1 -10 4 0 6 5 11 10 11 6 0
10 -2 10 -4z m37 -19 c0 -8 -6 -14 -14 -14 -9 0 -10 4 -2 14 6 7 12 13 14 13
1 0 2 -6 2 -13z m-602 -41 c-1 -51 -11 -52 -11 -1 0 24 3 42 6 40 4 -2 6 -20
5 -39z m51 32 c3 -4 -1 -5 -10 -4 -8 1 -18 5 -22 8 -3 4 1 5 10 4 8 -1 18 -5
22 -8z m-729 -23 c0 -8 -4 -12 -9 -9 -5 3 -6 10 -3 15 9 13 12 11 12 -6z
m2216 -5 c10 -12 9 -12 -4 -2 -9 6 -18 9 -21 6 -3 -3 -9 -1 -12 4 -9 15 22 8
37 -8z m37 14 c0 -8 -19 -13 -24 -6 -3 5 1 9 9 9 8 0 15 -2 15 -3z m-3320 -18
c0 -2 -8 -10 -17 -17 -16 -13 -17 -12 -4 4 13 16 21 21 21 13z m652 -21 c10 7
11 5 0 -6 -10 -11 -16 -9 -35 11 -22 24 -22 24 0 6 12 -10 27 -15 35 -11z
m458 21 c0 -2 -7 -7 -16 -10 -8 -3 -12 -2 -9 4 6 10 25 14 25 6z m-1083 -36
c-5 -31 -13 -32 -12 -1 0 16 3 27 7 25 4 -3 6 -14 5 -24z m-77 10 c0 -5 -2
-10 -4 -10 -3 0 -8 5 -11 10 -3 6 -1 10 4 10 6 0 11 -4 11 -10z m1051 -13
c-10 -9 -11 -8 -5 6 3 10 9 15 12 12 3 -3 0 -11 -7 -18z m706 16 c-4 -3 -1
-13 6 -22 11 -14 10 -14 -5 -2 -16 12 -16 31 -1 31 4 0 3 -3 0 -7z m647 -1 c2
-4 -4 -8 -14 -8 -10 0 -16 4 -14 8 3 4 9 8 14 8 5 0 11 -4 14 -8z m-2440 -20
c3 -5 -1 -9 -9 -9 -8 0 -15 4 -15 9 0 4 4 8 9 8 6 0 12 -4 15 -8z m2449 -17
c-3 -9 -8 -14 -10 -11 -3 3 -2 9 2 15 9 16 15 13 8 -4z m-1799 -6 c3 -2 -10
-5 -29 -5 -18 0 -32 3 -30 7 5 7 52 6 59 -2z m66 1 c0 -5 -2 -10 -4 -10 -3 0
-8 5 -11 10 -3 6 -1 10 4 10 6 0 11 -4 11 -10z m415 1 c-9 -8 -36 -10 -30 -2
2 4 11 8 20 8 8 0 13 -3 10 -6z m645 0 c0 -6 -4 -12 -8 -15 -5 -3 -9 1 -9 9 0
8 4 15 9 15 4 0 8 -4 8 -9z m1580 5 c0 -3 -4 -8 -10 -11 -5 -3 -10 -1 -10 4 0
6 5 11 10 11 6 0 10 -2 10 -4z m-1484 -29 c0 -13 -6 -24 -13 -24 -6 0 -9 5 -5
11 4 6 7 14 8 19 5 26 10 23 10 -6z m-47 -1 c9 -11 9 -16 -1 -22 -7 -4 -10 -4
-6 1 4 4 3 14 -3 22 -6 7 -9 13 -6 13 2 0 10 -6 16 -14z m-1089 0 c0 -2 -8
-10 -17 -17 -16 -13 -17 -12 -4 4 13 16 21 21 21 13z m-140 -10 c0 -2 -7 -7
-16 -10 -8 -3 -12 -2 -9 4 6 10 25 14 25 6z m1935 -5 c3 -5 2 -12 -3 -15 -5
-3 -9 1 -9 9 0 17 3 19 12 6z m-677 -46 c-3 -3 -9 2 -12 12 -6 14 -5 15 5 6 7
-7 10 -15 7 -18z m1376 7 c3 -5 -1 -9 -9 -9 -8 0 -12 4 -9 9 3 4 7 8 9 8 2 0
6 -4 9 -8z m80 0 c3 -5 -1 -9 -9 -9 -8 0 -12 4 -9 9 3 4 7 8 9 8 2 0 6 -4 9
-8z m-2638 -17 c-1 -8 -5 -17 -8 -21 -5 -4 -4 16 1 34 3 9 9 -1 7 -13z m-36
-26 c0 -5 -5 -9 -12 -9 -6 0 -8 3 -5 7 4 3 1 13 -6 22 -11 14 -10 14 6 2 9 -7
17 -17 17 -22z m80 27 c0 -3 -4 -8 -10 -11 -5 -3 -10 -1 -10 4 0 6 5 11 10 11
6 0 10 -2 10 -4z m-327 -19 c4 3 7 1 7 -5 0 -17 -16 -15 -31 6 -12 15 -12 16
2 5 9 -7 19 -10 22 -6z m2782 4 c3 -5 2 -12 -3 -15 -5 -3 -9 1 -9 9 0 17 3 19
12 6z m-1455 -15 c-7 -7 -13 -7 -20 0 -6 6 -3 10 10 10 13 0 16 -4 10 -10z
m1500 10 c0 -2 -7 -7 -16 -10 -8 -3 -12 -2 -9 4 6 10 25 14 25 6z m-86 -47 c3
-3 -10 -5 -29 -4 -18 0 -36 3 -39 6 -3 3 10 5 29 4 18 0 36 -3 39 -6z m59 -14
c-3 -9 -8 -14 -10 -11 -3 3 -2 9 2 15 9 16 15 13 8 -4z"/>
<path d="M4980 4379 c0 -5 5 -7 10 -4 6 3 10 8 10 11 0 2 -4 4 -10 4 -5 0 -10
-5 -10 -11z"/>
<path d="M3571 3916 c-10 -12 -9 -14 5 -12 10 2 20 8 22 14 5 17 -13 15 -27
-2z"/>
<path d="M3965 2980 c-3 -5 -1 -10 4 -10 6 0 11 5 11 10 0 6 -2 10 -4 10 -3 0
-8 -4 -11 -10z"/>
</g>
</svg>
